<svg width="24" height="24" viewBox="0 0 24 24" fill="none" xmlns="http://www.w3.org/2000/svg">
  <path d="M21 5C19.89 4.65 18.67 4.5 17.5 4.5C15.55 4.5 13.45 4.9 12 6C10.55 4.9 8.45 4.5 6.5 4.5C5.33 4.5 4.11 4.65 3 5C2.25 5.25 2 5.55 2 6V20.5C2 20.85 2.25 21.1 2.6 21.1C2.75 21.1 2.85 21.05 2.95 21L3 20.85C4.1 20.5 5.05 20.5 6.5 20.5C8.45 20.5 10.55 20.9 12 22C13.35 21.15 15.8 20.5 17.5 20.5C19.15 20.5 20.85 20.81 22 21.35C22.05 21.4 22.1 21.4 22.25 21.4C22.6 21.4 22.85 21.15 22.85 20.8V6C22.85 5.55 22.6 5.25 21.85 5H21ZM21 18.5C20.16 18.65 18.86 18.5 17.5 18.5C15.8 18.5 13.35 19.15 12 20V8C13.35 7.15 15.8 6.5 17.5 6.5C18.86 6.5 20.16 6.65 21 6.8V18.5Z" fill="currentColor"/>
</svg>