<svg width="24" height="24" viewBox="0 0 24 24" fill="none" xmlns="http://www.w3.org/2000/svg">
  <path d="M12 2C12 2 8 6 8 10C8 12.21 9.79 14 12 14C14.21 14 16 12.21 16 10C16 6 12 2 12 2Z" fill="currentColor"/>
  <path d="M12 14C12 14 10 16 10 18C10 19.1 10.9 20 12 20C13.1 20 14 19.1 14 18C14 16 12 14 12 14Z" fill="currentColor"/>
  <path d="M8 10C8 10 6 12 6 14C6 15.1 6.9 16 8 16C9.1 16 10 15.1 10 14C10 12 8 10 8 10Z" fill="currentColor"/>
  <path d="M16 10C16 10 18 12 18 14C18 15.1 17.1 16 16 16C14.9 16 14 15.1 14 14C14 12 16 10 16 10Z" fill="currentColor"/>
</svg>