<?xml version="1.0" standalone="no"?><!DOCTYPE svg PUBLIC "-//W3C//DTD SVG 1.1//EN" "http://www.w3.org/Graphics/SVG/1.1/DTD/svg11.dtd"><svg t="1758815097244" class="icon" viewBox="0 0 1024 1024" version="1.1" xmlns="http://www.w3.org/2000/svg" p-id="117473" xmlns:xlink="http://www.w3.org/1999/xlink" width="128" height="128"><path d="M385.654949 728.746667l-23.272727-40.339394 138.912323-80.109899 23.272728 40.339394zM319.043232 607.780202l183.59596-106.020202 23.272727 40.287677-183.595959 106.020202zM295.201616 565.785859l-23.272727-40.287677 237.381818-137.050505 23.272727 40.339394zM224.349091 445.698586L470.626263 303.476364l23.272727 40.339394-246.328889 142.222222z" fill="#7FC1E0" p-id="117474"></path><path d="M512 0C227.555556 0 0 227.555556 0 512s227.555556 512 512 512 512-227.555556 512-512S796.444444 0 512 0z m165.494949 760.242424l-170.666666 98.262627c-15.515152 10.343434-31.030303 15.515152-46.545455 15.515151-46.545455 0-87.919192-25.858586-113.777777-77.575758L181.010101 512c-20.686869-36.20202-25.858586-67.232323-20.686869-103.434343 5.171717-31.030303 20.686869-56.888889 46.545455-72.404041l170.666667-98.262626c15.515152-10.343434 31.030303-15.515152 46.545454-15.515152 46.545455 0 87.919192 25.858586 113.777778 77.575758l67.232323 118.949495-46.545454 82.747475 72.40404 41.373737 25.858586-31.030303 41.373737 67.232323c46.545455 72.40404 36.20202 149.979798-20.686869 181.010101zM817.131313 258.585859l-129.292929 222.383838-5.171717 5.171717-56.888889-67.232323 118.949495-201.69697c10.343434-20.686869 31.030303-36.20202 41.373737-31.030303l36.20202 20.686869c10.343434 5.171717 5.171717 31.030303-5.171717 51.717172z" fill="#f4ea2a" p-id="117475" data-spm-anchor-id="a313x.search_index.0.i128.375c3a813uCqci" class="selected"></path><path d="M553.373737 615.434343l72.404041-51.717171-67.232323-41.373738z" fill="#7FC1E0" p-id="117476"></path></svg>