<?xml version="1.0" standalone="no"?><!DOCTYPE svg PUBLIC "-//W3C//DTD SVG 1.1//EN" "http://www.w3.org/Graphics/SVG/1.1/DTD/svg11.dtd"><svg t="1758814648743" class="icon" viewBox="0 0 1026 1024" version="1.1" xmlns="http://www.w3.org/2000/svg" p-id="106690" xmlns:xlink="http://www.w3.org/1999/xlink" width="128.25" height="128"><path d="M574.577778 870.4c-34.133333 34.133333-88.177778 34.133333-122.311111 0-34.133333-34.133333-34.133333-88.177778 0-122.311111l426.666666-426.666667c34.133333-34.133333 88.177778-34.133333 122.311111 0 34.133333 34.133333 34.133333 88.177778 0 122.311111l-426.666666 426.666667zM711.111111 298.666667H85.333333c-48.355556 0-85.333333-36.977778-85.333333-85.333334s36.977778-85.333333 85.333333-85.333333h768c14.222222 0 28.444444 5.688889 42.666667 14.222222-28.444444 11.377778-56.888889 28.444444-79.644444 51.2L711.111111 298.666667z m-625.777778 85.333333h540.444445l-170.666667 170.666667H85.333333c-48.355556 0-85.333333-36.977778-85.333333-85.333334s36.977778-85.333333 85.333333-85.333333z m0 256h284.444445l-48.355556 48.355556c-34.133333 34.133333-54.044444 73.955556-62.577778 122.311111H85.333333c-48.355556 0-85.333333-36.977778-85.333333-85.333334s36.977778-85.333333 85.333333-85.333333z m853.333334 85.333333c0 48.355556-36.977778 85.333333-85.333334 85.333334h-31.288889l113.777778-110.933334c0 5.688889 2.844444 17.066667 2.844445 25.6z" fill="#d4237a" p-id="106691"></path></svg>