<?xml version="1.0" standalone="no"?><!DOCTYPE svg PUBLIC "-//W3C//DTD SVG 1.1//EN" "http://www.w3.org/Graphics/SVG/1.1/DTD/svg11.dtd"><svg t="1758814743765" class="icon" viewBox="0 0 1024 1024" version="1.1" xmlns="http://www.w3.org/2000/svg" p-id="111383" xmlns:xlink="http://www.w3.org/1999/xlink" width="128" height="128"><path d="M146.648619 855.744361a26.820184 26.820184 0 0 1-20.811915-9.846252 508.486938 508.486938 0 0 1-42.51479-59.694329 27.037213 27.037213 0 1 1 46.181433-28.122357 448.141523 448.141523 0 0 0 38.05999 53.400496 27.162861 27.162861 0 0 1-3.540996 38.082834 28.122357 28.122357 0 0 1-17.373722 6.179608z m0 0" fill="#CD3333" p-id="111384"></path><path d="M511.839469 1023.998755a508.030036 508.030036 0 0 1-294.896381-93.550814 26.993807 26.993807 0 0 1 31.092224-44.136794 454.823724 454.823724 0 0 0 263.86127 83.590336c252.381591 0 457.782169-205.503381 457.782169-458.044888s-205.400578-458.044888-457.782169-458.044888-457.656521 205.606184-457.656521 458.113424A456.445729 456.445729 0 0 0 72.641815 640.691715a27.038355 27.038355 0 0 1-51.892717 15.214858 513.204458 513.204458 0 0 1-20.469237-143.924329C0.279861 229.639263 229.804897 0 512.010808 0s511.730947 229.593572 511.730947 511.982244-229.593572 511.993666-511.845173 511.993666z m0 0" fill="#CD3333" p-id="111385"></path><path d="M769.818118 658.670833a135.174644 135.174644 0 0 1-135.33456 135.391673c-74.886341 0-134.009542-60.471063-134.009542-135.391673s60.436796-135.403095 134.009542-135.403094 135.334559 60.471063 135.33456 135.403094z m0 0" fill="#D81E06" p-id="111386"></path><path d="M769.818118 658.670833a135.174644 135.174644 0 0 1-135.33456 135.391673c-74.886341 0-134.009542-60.471063-134.009542-135.391673s60.436796-135.403095 134.009542-135.403094 135.334559 60.471063 135.33456 135.403094z" fill="#D81E06" p-id="111387"></path><path d="M424.76525 791.355358H310.436789a32.531467 32.531467 0 0 1-32.851299-32.862722V265.528964a32.531467 32.531467 0 0 1 32.851299-32.862722h394.181323a32.531467 32.531467 0 0 1 32.851299 32.862722v148.493355a17.133849 17.133849 0 1 0 34.164894 0v-148.493355a65.908205 65.908205 0 0 0-65.702598-65.725443H310.436789c-36.792084 0-65.702598 30.235532-65.702598 65.725443v492.963672a65.908205 65.908205 0 0 0 65.702598 65.725443H426.056a17.396568 17.396568 0 0 0 17.133849-17.133848c0-9.138053-9.138053-15.774563-18.401754-15.774564z" fill="#D81E06" p-id="111388"></path><path d="M638.915514 348.353989c0-9.206588-6.567975-17.133849-14.449546-17.133849H390.588933c-7.892993 0-14.460968 7.892993-14.460968 17.133849s6.567975 17.076736 14.460968 17.076736H624.465968c7.88157-1.302172 14.449546-9.195165 14.449546-17.076736zM391.902529 462.716717a17.133849 17.133849 0 0 0 0 34.176317h32.862721a17.133849 17.133849 0 0 0 0-34.176317zM630.702689 503.792264a148.550468 148.550468 0 1 0 148.493355 148.493355 148.561891 148.561891 0 0 0-148.493355-148.493355z" fill="#D81E06" p-id="111389"></path><path d="M710.192324 700.328931l-47.300845-48.637285 48.580173-47.335113a23.233499 23.233499 0 0 0-32.839877-32.862722l-47.266577 48.637285-47.300845-48.637285a23.233499 23.233499 0 0 0-32.851299 32.862722l47.300844 48.648708-48.61444 47.32369a23.233499 23.233499 0 0 0 32.839877 32.862722l48.625863-48.648708 47.300845 48.648708a22.993625 22.993625 0 0 0 32.839876 0c7.892993-9.206588 7.892993-24.981151-1.313595-32.862722z" fill="#FFFFFF" p-id="111390"></path></svg>