<?xml version="1.0" standalone="no"?><!DOCTYPE svg PUBLIC "-//W3C//DTD SVG 1.1//EN" "http://www.w3.org/Graphics/SVG/1.1/DTD/svg11.dtd"><svg t="1759043052451" class="icon" viewBox="0 0 1024 1024" version="1.1" xmlns="http://www.w3.org/2000/svg" p-id="138919" xmlns:xlink="http://www.w3.org/1999/xlink" width="128" height="128"><path d="M928 0h-832A96 96 0 0 0 0 96v704A96 96 0 0 0 96 896h832a96 96 0 0 0 96-96v-704A96 96 0 0 0 928 0zM256 832v-96c0-122.88 32.64-155.52 83.2-160l118.4 117.76a30.72 30.72 0 0 0 44.8 0L620.8 576c50.56 3.84 83.2 36.48 83.2 159.36V832z m704-32a32 32 0 0 1-32 32H768v-96c0-55.68 0-224-160-224a30.08 30.08 0 0 0-22.4 9.6L480 626.56 374.4 521.6A30.08 30.08 0 0 0 352 512C192 512 192 680.32 192 736V832H96a32 32 0 0 1-32-32v-704a32 32 0 0 1 32-32h832a32 32 0 0 1 32 32zM800 960h-576a32 32 0 0 0 0 64h576a32 32 0 0 0 0-64z" p-id="138920" fill="#515151"></path><path d="M480 192A160 160 0 1 0 640 352 160 160 0 0 0 480 192z m0 256A96 96 0 1 1 576 352 96 96 0 0 1 480 448z" p-id="138921" fill="#515151"></path></svg>