<?xml version="1.0" standalone="no"?><!DOCTYPE svg PUBLIC "-//W3C//DTD SVG 1.1//EN" "http://www.w3.org/Graphics/SVG/1.1/DTD/svg11.dtd"><svg t="1758718492771" class="icon" viewBox="0 0 1024 1024" version="1.1" xmlns="http://www.w3.org/2000/svg" p-id="87207" xmlns:xlink="http://www.w3.org/1999/xlink" width="128" height="128"><path d="M345.5 384.9c0-0.9-0.8-1.7-1.7-1.7h-44.6c-0.9 0-1.7 0.8-1.7 1.7v44.6c0 0.9 0.8 1.7 1.7 1.7h44.6c0.9 0 1.7-0.8 1.7-1.7v-44.6zM649 384.9c0-0.9-0.8-1.7-1.7-1.7H398.8c-0.9 0-1.7 0.8-1.7 1.7v44.6c0 0.9 0.8 1.7 1.7 1.7h248.5c0.9 0 1.7-0.8 1.7-1.7v-44.6zM342.8 494.1h-44.6c-0.9 0-1.7 0.8-1.7 1.7v44.6c0 0.9 0.8 1.7 1.7 1.7h44.6c0.9 0 1.7-0.8 1.7-1.7v-44.6c0-1-0.8-1.7-1.7-1.7zM646.7 494.1H398.2c-0.9 0-1.7 0.8-1.7 1.7v44.6c0 0.9 0.8 1.7 1.7 1.7h248.5c0.9 0 1.7-0.8 1.7-1.7v-44.6c-0.1-1-0.8-1.7-1.7-1.7z" fill="#515151" p-id="87208"></path><path d="M201.4 303H800c0.9 0 1.7 0.8 1.7 1.7v268.6c0 0.9 0.8 1.7 1.7 1.7H848c0.9 0 1.7-0.8 1.7-1.7V130.7c0-0.9-0.8-1.7-1.7-1.7H672.9c-0.9 0-1.7-0.8-1.7-1.7V83.7c0-0.9-0.8-1.7-1.7-1.7h-44.6c-0.9 0-1.7 0.8-1.7 1.7v43.6c0 0.9-0.8 1.7-1.7 1.7H379.9c-0.9 0-1.7-0.8-1.7-1.7V83.7c0-0.9-0.8-1.7-1.7-1.7h-44.6c-0.9 0-1.7 0.8-1.7 1.7v43.6c0 0.9-0.8 1.7-1.7 1.7H153.4c-0.9 0-1.7 0.8-1.7 1.7V940.3c0 0.9 0.8 1.7 1.7 1.7H499c0.9 0 1.7-0.8 1.7-1.7v-44.6c0-0.9-0.8-1.7-1.7-1.7H201.4c-0.9 0-1.7-0.8-1.7-1.7V304.7c0.1-0.9 0.8-1.7 1.7-1.7z m0-126h127.1c0.9 0 1.7 0.8 1.7 1.7v37.6c0 0.9 0.8 1.7 1.7 1.7h44.6c0.9 0 1.7-0.8 1.7-1.7v-37.6c0-0.9 0.8-1.7 1.7-1.7h241.6c0.9 0 1.7 0.8 1.7 1.7v37.6c0 0.9 0.8 1.7 1.7 1.7h44.6c0.9 0 1.7-0.8 1.7-1.7v-37.6c0-0.9 0.8-1.7 1.7-1.7H800c0.9 0 1.7 0.8 1.7 1.7v74.6c0 0.9-0.8 1.7-1.7 1.7H201.4c-0.9 0-1.7-0.8-1.7-1.7v-74.6c0.1-0.9 0.8-1.7 1.7-1.7z" fill="#515151" p-id="87209"></path><path d="M772.9 750.7c33.5-24.5 47-74.7 11.3-121.3l-0.3-0.3C719 579.5 647.3 625 647.3 687c0 25.9 12.5 48.8 31.7 63.3 1.1 0.8 0.8 2.5-0.4 2.9-57.8 20.8-99.6 79.3-100.3 148.1 0 0.9 0.8 1.7 1.7 1.7h32.6c0.9 0 1.7-0.7 1.7-1.7 0.8-66.5 50.3-120.3 111-120.3s110.2 53.8 111 120.3c0 0.9 0.8 1.7 1.7 1.7h32.6c0.9 0 1.7-0.8 1.7-1.7-0.7-68.3-41.9-126.4-99-147.6-1.3-0.5-1.5-2.2-0.4-3z m-15.4-32.1c-45.7 34.9-97.7-17.1-62.8-62.8l0.3-0.3c45.7-34.9 97.7 17.1 62.8 62.8l-0.3 0.3z" fill="#515151" p-id="87210"></path></svg>