<?xml version="1.0" standalone="no"?><!DOCTYPE svg PUBLIC "-//W3C//DTD SVG 1.1//EN" "http://www.w3.org/Graphics/SVG/1.1/DTD/svg11.dtd"><svg t="1758814579328" class="icon" viewBox="0 0 1024 1024" version="1.1" xmlns="http://www.w3.org/2000/svg" p-id="103900" xmlns:xlink="http://www.w3.org/1999/xlink" width="128" height="128"><path d="M304 960a32 32 0 1 1 0-64h552a40 40 0 0 0 2.624-79.92L856 816h-688a104 104 0 1 1 0-208H336a32 32 0 0 1 2.4 63.92l-2.416 0.08H168a40 40 0 0 0-2.624 79.92L168 752h688a104 104 0 1 1 0 208z m544-352l2.4 0.08a32 32 0 0 1 0 63.84l-2.8 0.08h-159.616l-2.368-0.08a32 32 0 0 1 0-63.84L688 608h160z" fill="#17191C" p-id="103901"></path><path d="M512 64c123.712 0 224 100.288 224 224 0 82.48-74.672 210.48-224 384-149.328-173.52-224-301.52-224-384 0-123.712 100.288-224 224-224z m0 112a112 112 0 1 0 0 224 112 112 0 0 0 0-224z" fill="#1062FE" p-id="103902"></path></svg>