<?xml version="1.0" standalone="no"?><!DOCTYPE svg PUBLIC "-//W3C//DTD SVG 1.1//EN" "http://www.w3.org/Graphics/SVG/1.1/DTD/svg11.dtd"><svg t="1758541175015" class="icon" viewBox="0 0 1024 1024" version="1.1" xmlns="http://www.w3.org/2000/svg" p-id="67510" xmlns:xlink="http://www.w3.org/1999/xlink" width="128" height="128"><path d="M814.08 366.08h-76.8v-76.8c0-124.416-100.85888-225.28-225.28-225.28s-225.28 100.85888-225.28 225.28v76.8H209.92c-56.55552 0-102.4 45.84448-102.4 102.4v389.12c0 56.55552 45.84448 102.4 102.4 102.4h604.16c56.55552 0 102.4-45.84448 102.4-102.4v-389.12c0-56.55552-45.84448-102.4-102.4-102.4z m-455.68-76.8c0-84.69504 68.90496-153.6 153.6-153.6s153.6 68.90496 153.6 153.6v76.8H358.4v-76.8z m486.4 568.32c0 16.93696-13.77792 30.72-30.72 30.72H209.92c-16.94208 0-30.72-13.78304-30.72-30.72v-389.12c0-16.93696 13.77792-30.72 30.72-30.72h604.16c16.94208 0 30.72 13.78304 30.72 30.72v389.12z" fill="#515151" p-id="67511"></path><path d="M512 550.4a35.84 35.84 0 0 0-35.84 35.84v174.08a35.84 35.84 0 1 0 71.68 0v-174.08a35.84 35.84 0 0 0-35.84-35.84z" fill="#515151" p-id="67512"></path></svg>