<?xml version="1.0" standalone="no"?><!DOCTYPE svg PUBLIC "-//W3C//DTD SVG 1.1//EN" "http://www.w3.org/Graphics/SVG/1.1/DTD/svg11.dtd"><svg t="1758845507498" class="icon" viewBox="0 0 1024 1024" version="1.1" xmlns="http://www.w3.org/2000/svg" p-id="122248" xmlns:xlink="http://www.w3.org/1999/xlink" width="128" height="128"><path d="M232.075 748.4625zM232.1 748.625zM232.1 748.625a5.4625 5.4625 0 0 0 1.4 2.9375 13.55 13.55 0 0 0 4.5375 2.8875c-4-1.8375-5.575-3.975-5.9375-5.825zM843.3125 624.775h0.2875l-1.825 0.0875zM560.6125 324a27.2875 27.2875 0 0 1 8.75 3.625 27.075 27.075 0 0 0-9.175-4 0.7625 0.7625 0 0 0 0.425 0.375zM238.4 740.175l0.4125-0.175z" fill="#50ABF0" p-id="122249"></path><path d="M512.7125 63.75C265.7 63.75 64.7625 264.9375 64.7625 512.2s200.9375 448.65 447.95 448.65 447.75-201.25 447.75-448.65S759.5875 63.75 512.7125 63.75z m137.2875 288.1375c33.8125-45.7125 96.4125-86.4125 124.325-89.5875h3.45a32.7625 32.7625 0 0 1 9.6 1.5c14.8125 4.3375 29.175 17.1125 29.9125 24.5625 0.25 3.8875-6.8 5.2-10.65 7.5h-0.0875l-0.6 0.4h-0.075a0.8 0.8 0 0 0 0.3 1.3875c18.85 4.4875 23.375 25.1625 25.2 41.975 9.0875 82.7-54.2 203.325-157.8875 222.125a64.8 64.8 0 0 1-10.9625 0.9375c-33.8375-0.3125-57.025-33.525-60.775-66.7375-5.325-48.5125 20.05-105.5375 48.25-144.0625z m-120.3-63.5875a73.125 73.125 0 0 0-18.175 5c6.8875-2.8125 13.15-4.7 18.175-5.0125z m-23.75 7.5c0.3125-0.3125 0.625-0.3125 0.9375-0.625 0 0.3125-0.3125 0.625-0.9375 0.625a7.75 7.75 0 0 1-2.825 1.25c0.875-0.3 1.825-0.925 2.7625-1.2375z m-101.25 82.3875c20-27.2375 50.4-52.6 77.3375-69.2l0.0875-0.075a9.4375 9.4375 0 0 1 0.875-0.625 1.35 1.35 0 0 1-0.2875 0c0.3125-0.3125 0.9375-0.625 1.25-0.9375a3.2625 3.2625 0 0 1-0.2 0.3375l2.3625-1.575c5.625-3.125 10.95-6.25 15.95-8.4375h0.25l0.6875-0.3125-0.65 0.3125c0.9375-0.3125 1.875-0.9375 2.825-1.25 0.3125-0.3125 0.625-0.3125 0.9375-0.625l1.875-0.9375 1.875-0.9375c0.3125 0 0.625-0.3125 0.9375-0.3125a73.15 73.15 0 0 1 18.175-5h1.075c17.5-1.5625 40.725 16.6 41.6625 26 0.1125 1.7-1.1875 2.9125-2.9875 3.925 2.15-1.075 3.75-2.35 3.6125-4.2375-0.3875-2.925-2.875-6.7125-6.65-10.475-8.275-8.2375-22.75-16.3875-35-15.525 12.075-1.075 26.675 7.2 35 15.525 3.75 3.75 6.25 7.5 6.65 10.475 0.6125 4.575-9.15 5.8875-12.275 8.85a0.7875 0.7875 0 0 0 0 0.3c9.8 1.9625 15.8625 8.2875 19.7 16.25 3.6375 7.275 5.2625 15.9625 6.1125 23.9875 0.075 0.65 0.15 1.25 0.225 1.95a148.6375 148.6375 0 0 1 0.8625 16.1c0.225 81.4875-61.4875 188.75-158.75 206.325a64.7375 64.7375 0 0 1-10.9625 0.9375c-33.8375-0.3125-57.0125-33.525-60.775-66.725-5.3625-48.525 20.0125-105.5375 48.2-144.075z m-183.6875 116.55c26-55.45 55.7625-105 66.725-122.8l-0.9375-0.625-39.4125 20-0.1125 0.075c-1.675 1.25-9.375 5.2875-11.25 5.6-3.75 0.3125-4.3875-4.7-4.3875-7.8375v-1.875c-0.3125-12.5 7.825-17.225 17.5-24.4375 13.4625-9.7125 59.2125-43.8625 71.425-45.1125 10.9625-1.25 22.5 20.9875 23.1875 27.575a22.2 22.2 0 0 1 0.3125 4.3875c0 9.7125-6.25 21.925-54.825 129.075-11.5875 25.375-37.6 83.65-38.5375 114.35a34.0875 34.0875 0 0 0 0.3125 5.6375 1.875 1.875 0 0 0 0.3125 1.25c0.625 4.3875 1.875 8.4625 2.5 12.85a1.25 1.25 0 0 0 0.1625 0.75 0.8125 0.8125 0 0 1 0.15 0.4375v2.15a0.9 0.9 0 0 1 0 0.225 5.425 5.425 0 0 1-5.3 4.275c-2.1875 0.3125-7.2125-1.875-9.4-2.825-17.85-7.825-36.65-8.75-39.1625-31.0125A19.2875 19.2875 0 0 1 200.0625 582.5c-0.6625-23.225 11.875-68.3375 20.95-87.7625z m2.9125 223.0625c-10.4125 4.3875-27.3125 10.925-34.3 11.025a6.5125 6.5125 0 0 1-1.8875-0.2 2.75 2.75 0 0 1-0.4625-0.175c-4.0125-1.85-5.6-4.0125-5.9375-5.875a1.25 1.25 0 0 1 0-0.1625c-0.2125-4.15 5.4-7.7125 5.925-8.0375h0.075c3.025-1.45 188.9-90.0875 531.6125-114.0625a0.8125 0.8125 0 0 1 0.175 1.6l-2.05 0.2875a0.8 0.8 0 0 0 0.1625 1.6c21.775-1.6875 54.0875-4.0625 75.95-5 0 0-300.725 24.125-561.05 115.5875h-0.0625c-0.3875 0.1375-3.7125 1.6375-8.15 3.4125z m101.65 8.1q-21.65 6.925-43.0625 14.4625s-31.25 14.2-41.925 14.4625a5.575 5.575 0 0 1-2.5-0.375 12.775 12.775 0 0 1-4.525-2.8875 4.475 4.475 0 0 1-1.4125-3.0625 4.5125 4.5125 0 0 1 0-0.5v-0.25a5.125 5.125 0 0 1 0.15-0.775 6.125 6.125 0 0 1 0.25-0.7125l0.125-0.25c0.075-0.1625 0.15-0.325 0.2375-0.475l0.175-0.2875 0.2625-0.4125 0.2125-0.2875 0.275-0.375 0.2375-0.275 0.3-0.3375 0.25-0.2625 0.3-0.3125 0.2625-0.25 0.3-0.275 0.25-0.225 0.3-0.25 0.2375-0.2 0.275-0.225 0.225-0.175 0.2375-0.1875 0.2-0.15 0.2125-0.15 0.1625-0.1125 0.1625-0.1125 0.1125-0.075 0.1125-0.075h0.075l0.1375-0.0625-0.1375 0.0625 0.1875-0.0875h0.125c8.3125-3.95 187.7125-87.5875 515.3375-112.75h0.2q7.7625-0.6 15.625-1.15h0.2125q11.6-0.8125 23.4375-1.525-11.8375 0.7125-23.4375 1.525a0.8 0.8 0 0 1 0.1625 1.6l-0.6375 0.0875a0.8 0.8 0 0 0 0 1.5875c21.725-1.7375 52.9875-4.05 74.3125-4.8h-0.2875 0.6c-0.275-0.2625-268.7625 21.0125-518.3125 100.8875z" fill="#50ABF0" p-id="122250"></path><path d="M672.7875 498.5c10.4625-1 31.1375-16.4375 38.1125-24.6625l66.25-116.8375a6.9 6.9 0 0 0-0.25-2.2375 2.7125 2.7125 0 0 0-0.25-1.25 32.3875 32.3875 0 0 0-4.2375-11.4625c-2.2375-3.2375-5.975-6.25-10.7125-5.725a15.6375 15.6375 0 0 0-7.975 3.75 57.2125 57.2125 0 0 0-6.725 6.725c-2.2375 2.5-3.9875 4.4875-5.225 4.4875-2.7375 0.25-3.9875-3.75-3.9875-5.725-56.55 39.6125-78.9625 89.1875-78.75 124.5625v3.2375c0.3 6.4625 4.0375 26.3875 13.75 25.1375zM417.3 497.675a65.8375 65.8375 0 0 0 3.2375 15.45c0.5 1.5 1.25 2.7375 1.75 3.9875a21.5375 21.5375 0 0 0 1.7375 2.5 7.7125 7.7125 0 0 0 6.475 2.9875c5.225-0.5 12.95-4.7375 20.425-9.7125 2.7375-2 5.475-3.9875 7.975-5.7375 2.5-1.9875 4.7375-3.9875 6.725-5.725l3.2375-3.2375L499.25 463.75c12.95-17.9375 36.875-60.2875 35.875-83.2v-1.5c-0.75-6.725-5.2375-18.4375-13.75-18.9375h-1.75c-8.75 1-16.4375 14.7-19.925 15-2.7375 0.25-3.9875-3.75-3.9875-5.725-57.5 40.6125-80 91.675-78.475 127.05z" fill="#50ABF0" p-id="122251"></path><path d="M512.0625 0C229.6625 0 0.0625 229.6 0.0625 511.9375S229.6625 1024 512.0625 1024s511.875-229.8 511.875-512.0625S794.325 0 512.0625 0z m0 984.7125c-260.325 0-472.2-212.1375-472.2-472.8375S251.7375 39.225 512.0625 39.225 984 251.25 984 511.875 772.25 984.7125 512.0625 984.7125z" fill="#50ABF0" p-id="122252"></path></svg>