<?xml version="1.0" standalone="no"?><!DOCTYPE svg PUBLIC "-//W3C//DTD SVG 1.1//EN" "http://www.w3.org/Graphics/SVG/1.1/DTD/svg11.dtd"><svg t="1758845574450" class="icon" viewBox="0 0 1024 1024" version="1.1" xmlns="http://www.w3.org/2000/svg" p-id="124178" xmlns:xlink="http://www.w3.org/1999/xlink" width="128" height="128"><path d="M1024 512c0 282.769408-229.230592 512-512 512S0 794.769408 0 512 229.230592 0 512 0s512 229.230592 512 512" fill="#E8AC6E" p-id="124179"></path><path d="M326.360064 639.357952h-72.958976c-15.091712 0-27.350016 12.234752-27.350016 27.300864 0 15.070208 12.258304 27.305984 27.350016 27.305984h72.958976c15.117312 0 27.373568-12.232704 27.373568-27.305984 0-15.069184-12.258304-27.300864-27.373568-27.300864z m0 0M353.733632 511.913984c0-15.094784-12.258304-27.327488-27.373568-27.327488h-72.958976c-15.091712 0-27.350016 12.232704-27.350016 27.327488 0 15.092736 12.258304 27.302912 27.350016 27.302912h72.958976c15.117312-0.001024 27.373568-12.2112 27.373568-27.302912z m0 0M353.729536 357.161984c0-15.091712-12.260352-27.300864-27.375616-27.300864h-72.957952c-15.089664 0-27.347968 12.209152-27.347968 27.300864 0 15.069184 12.258304 27.30496 27.347968 27.30496h72.957952c15.121408 0 27.375616-12.232704 27.375616-27.30496z m0 0" fill="#FFFFFF" p-id="124180"></path><path d="M797.57312 275.226624c0-15.080448-16.918528-27.301888-37.74464-27.301888H599.950336v-0.003072H308.125696c-15.118336 0-27.347968 12.224512-27.347968 27.301888v27.305984h45.579264c30.236672 0 54.726656 24.464384 54.726656 54.629376 0 30.162944-24.491008 54.6304-54.726656 54.6304h-45.579264v45.512704h45.579264c30.236672 0 54.726656 24.441856 54.726656 54.606848s-24.491008 54.606848-54.726656 54.606848h-45.579264v45.51168h45.579264c30.236672 0 54.726656 24.46848 54.726656 54.632448 0 30.162944-24.491008 54.628352-54.726656 54.628352h-45.579264v27.27936c0 15.094784 12.232704 27.329536 27.347968 27.329536h413.919232v0.003072h37.782528v-0.006144c20.826112 0 37.74464-12.234752 37.74464-27.327488V275.226624zM458.892288 674.710528c22.966272-2.532352 41.955328-13.345792 56.989696-32.4096 4.411392-5.064704 7.494656-7.625728 9.278464-7.625728 7.95136 2.561024 12.79488 10.187776 14.577664 22.877184-10.60352 26.688512-26.962944 44.473344-49.03936 53.380096-11.491328-1.281024-20.768768-9.53344-27.830272-24.783872l-3.976192-11.43808z m157.712384-19.065856c0.8704-12.689408 5.300224-20.31616 13.253632-22.877184 1.76128 0 4.411392 2.561024 7.95136 7.626752 15.904768 17.811456 35.784704 27.97056 59.640832 30.502912l-3.977216 15.250432c-8.84224 16.502784-18.118656 24.783872-27.830272 24.783872-22.985728-8.906752-39.323648-27.3152-49.038336-55.286784z m96.748544-17.15712h-2.651136c-7.95136 0-16.791552-1.252352-26.50624-3.813376-6.191104-1.252352-10.16832-2.5344-11.927552-3.8144-10.602496-1.252352-24.743936-2.532352-42.40896-3.813376-18.55488-1.24928-37.107712-2.533376-55.662592-3.813376h-5.301248c-16.794624 0-30.047232 0.657408-39.760896 1.905664h-30.480384c-17.685504 1.281024-32.264192 2.56512-43.73504 3.8144-6.191104 2.561024-12.38528 3.813376-18.555904 3.813376-4.430848 1.281024-6.627328-1.906688-6.627328-9.53344v-9.531392c0.869376-6.345728 1.327104-11.440128 1.327104-15.253504 0-5.061632 1.32608-10.156032 3.977216-15.250432 1.759232-1.252352 4.84352-1.906688 9.27744-1.906688h5.301248c5.300224 0 8.820736 1.281024 10.601472 3.813376 0.8704 1.281024 2.193408 1.281024 3.977216 0 1.759232-1.252352 3.520512-1.905664 5.301248-1.905664 0.869376-20.31616 1.32608-48.913408 1.32608-85.791744v-30.502912c0-19.063808-0.456704-32.407552-1.32608-40.034304-0.89088 0-1.327104-0.625664-1.327104-1.905664-2.650112-5.062656-3.539968-8.876032-2.650112-11.437056 1.760256-8.87808 6.627328-15.253504 14.578688-19.06688 0.869376 0 2.19648 0.658432 3.977216 1.906688 0.869376 1.28 2.193408 1.28 3.976192 0h45.059072v-22.877184c0-3.813376-0.453632-9.531392-1.324032-17.15712-0.889856-6.345728-0.889856-12.065792 0-17.160192-0.889856-5.061632 0.8704-8.249344 5.301248-9.529344 1.760256 0 3.977216 0.654336 6.627328 1.905664 2.651136 1.281024 5.301248 1.281024 7.95136 0h3.977216c8.820736-1.252352 12.798976 3.813376 11.927552 15.250432-0.889856 7.626752-1.782784 12.095488-2.650112 13.346816v36.220928h34.4576v-22.877184c0-3.813376-0.456704-9.534464-1.327104-17.15712-0.889856-6.345728-0.889856-12.065792 0-17.160192-0.889856-5.061632 0.8704-8.249344 5.30432-9.529344 1.760256 0 3.974144 0.654336 6.624256 1.905664h11.927552c7.954432-1.252352 11.927552 3.810304 11.927552 15.250432-0.889856 6.375424-1.779712 10.1888-2.650112 11.440128v38.127616H676.2496c2.650112-1.252352 5.7344-2.533376 9.278464-3.813376 7.95136 5.093376 12.797952 11.439104 14.577664 19.062784 0 3.813376-1.327104 9.53344-3.977216 17.160192-0.889856 17.811456-1.324032 53.377024-1.324032 106.758144 0.8704 14.002176 1.324032 22.879232 1.324032 26.69056-0.889856 7.625728-0.453632 15.253504 1.327104 22.87616h11.927552c11.470848 0 19.878912-1.902592 25.18016-5.716992v15.251456c-5.305344 24.162304-12.389376 38.787072-21.210112 43.851776z m0 0" fill="#FFFFFF" p-id="124181"></path><path d="M500.944896 433.896448h31.807488v53.380096h-31.807488zM500.944896 536.844288v45.754368h31.807488v-57.191424h-31.807488v11.437056z m0 0M564.558848 433.896448h34.460672v53.380096h-34.460672zM564.558848 538.749952v24.783872c0.8704 8.906752 1.327104 15.253504 1.327104 19.06688h33.133568v-57.194496h-34.460672v13.343744z m0 0M630.827008 433.896448h33.130496v53.380096h-33.130496zM630.827008 544.470016v38.127616c3.520512 0 9.278464 0.657408 17.2288 1.905664 7.061504 1.284096 12.360704 1.284096 15.901696 0v-59.097088h-33.130496v19.063808z m0 0" fill="#FFFFFF" p-id="124182"></path></svg>