<?xml version="1.0" standalone="no"?><!DOCTYPE svg PUBLIC "-//W3C//DTD SVG 1.1//EN" "http://www.w3.org/Graphics/SVG/1.1/DTD/svg11.dtd"><svg t="1758621651228" class="icon" viewBox="0 0 1024 1024" version="1.1" xmlns="http://www.w3.org/2000/svg" p-id="74114" xmlns:xlink="http://www.w3.org/1999/xlink" width="128" height="128"><path d="M930 932h-804c-27.616 0-50-22.392-50-50v-752C76 102.384 98.384 80 126 80S176 102.384 176 130V832h754c27.608 0 50 22.392 50 50s-22.392 50-50 50z" p-id="74115" fill="#515151"></path><path d="M317.788 732.704c-12.24-3.772-22.864-12.584-29.452-25.02-13.008-24.936-5.936-55.012 16.804-71.408 53.136-37.856 103.536-84.476 148.956-139.388 9.384-11.336 21.932-18.144 35.204-18.396l185.26-3.34c63.012-98.788 113.04-214.404 143.524-343.4 8.896-38.752 38.776-49.36 67.984-19.452 29.196 29.792 43.236 89.5 30.344 128.956-44.728 140.808-111.132 264.688-191.064 367.82-10.776 13.912-24.412 20.544-37.572 18.996l-184.052-21.384c-46.2 47.156-95.868 87.388-147.408 120.444-12.452 7.988-26.312 9.34-38.528 5.572z" p-id="74116" fill="#515151"></path></svg>