<?xml version="1.0" standalone="no"?><!DOCTYPE svg PUBLIC "-//W3C//DTD SVG 1.1//EN" "http://www.w3.org/Graphics/SVG/1.1/DTD/svg11.dtd"><svg t="1758814794181" class="icon" viewBox="0 0 1024 1024" version="1.1" xmlns="http://www.w3.org/2000/svg" p-id="115159" xmlns:xlink="http://www.w3.org/1999/xlink" width="128" height="128"><path d="M512.149985 512.049995m-511.950005 0a511.950005 511.950005 0 1 0 1023.90001 0 511.950005 511.950005 0 1 0-1023.90001 0Z" fill="#9ACE5B" p-id="115160"></path><path d="M613.340104 1013.900986c234.277121-46.995411 410.759887-253.875207 410.759886-501.950981 0-17.798262-0.899912-35.396543-2.699736-52.694854l-216.978811-169.583439-32.096865 18.598184-94.090812-62.793868-396.661263 490.252124L613.340104 1013.900986z" fill="#91BC55" p-id="115161"></path><path d="M503.950786 510.150181m-316.869056 0a316.869056 316.869056 0 1 0 633.738112 0 316.869056 316.869056 0 1 0-633.738112 0Z" fill="#F2EFEF" p-id="115162"></path><path d="M800.621814 510.150181c0 163.784005-132.787033 296.571038-296.571038 296.571038S207.479738 673.934186 207.479738 510.150181 340.166781 213.579143 503.950786 213.579143c163.883996 0 296.671028 132.787033 296.671028 296.571038z" fill="#DB2E3B" p-id="115163"></path><path d="M726.42906 510.150181c0 122.887999-99.590274 222.478274-222.478274 222.478273s-222.478274-99.590274-222.478274-222.478273S381.062787 287.671907 503.950786 287.671907s222.478274 99.590274 222.478274 222.478274z" fill="#F2EFEF" p-id="115164"></path><path d="M355.265306 510.150181a148.68548 148.68548 0 1 0 297.37096 0 148.68548 148.68548 0 1 0-297.37096 0Z" fill="#DB2E3B" p-id="115165"></path><path d="M554.945806 510.150181c0 28.197246-22.797774 50.99502-50.99502 50.99502s-50.99502-22.797774-50.99502-50.99502 22.797774-50.99502 50.99502-50.99502 50.99502 22.897764 50.99502 50.99502z" fill="#F2EFEF" p-id="115166"></path><path d="M542.946978 478.553266c-0.19998 0.09999-0.399961 0.19998-0.499951 0.399961l-42.19588 33.7967c-3.799629 3.199688 0.499951 10.598965 5.199493 8.999121l50.295088-19.798067 0.599941-0.29997 29.59711-16.398399-13.998633-24.097647-28.997168 17.398301z" fill="#3D3938" p-id="115167"></path><path d="M571.144224 459.155161l1.099893 1.899814-0.299971 0.199981 13.898643 24.097646 0.29997-0.19998 0.999903 1.799824c2.499756 4.39957 7.499268 6.199395 11.098916 4.0996l56.294502-32.496827c3.499658-2.199785 4.29958-7.499268 1.799825-11.798848l-0.299971-0.499951 0.299971-0.19998-15.298506-26.497413-0.299971 0.199981-0.399961-0.699932c-2.499756-4.39957-7.499268-6.199395-11.098916-4.099599L572.944048 447.456303c-3.499658 2.099795-4.29958 7.299287-1.799824 11.698858z" fill="#FAAB18" p-id="115168"></path><path d="M656.435895 446.05644l79.292257-43.795723-5.699444-2.399766c-3.999609-1.699834-7.299287-4.799531-9.499072-8.59916s-3.299678-8.199199-2.699737-12.49878l0.599942-5.499463-77.292452 46.39547 15.298506 26.397422z" fill="#3D3938" p-id="115169"></path><path d="M710.630602 377.163168l-2.499755 21.097939 20.198027 8.699151 29.197149 12.498779c1.799824 0.699932 3.599648 0.699932 4.999512-0.19998l84.291768-48.795235c3.099697-1.799824 3.399668-6.099404 1.499854-9.399082-0.899912-1.499854-2.099795-2.699736-3.799629-3.399668l-32.596817-13.998633c-1.599844-0.699932-2.899717-1.899814-3.799629-3.499658-0.899912-1.499854-1.299873-3.299678-1.099893-4.999512l4.0996-35.196563c0.19998-1.799824-0.19998-3.499658-1.099893-4.999512-1.899814-3.299678-5.799434-5.199492-8.899131-3.399668L716.929987 340.366761c-1.499854 0.899912-2.399766 2.399766-2.699736 4.29958l-3.599649 32.496827z" fill="#FAAB18" p-id="115170"></path></svg>