<?xml version="1.0" standalone="no"?><!DOCTYPE svg PUBLIC "-//W3C//DTD SVG 1.1//EN" "http://www.w3.org/Graphics/SVG/1.1/DTD/svg11.dtd"><svg t="1759043190253" class="icon" viewBox="0 0 1024 1024" version="1.1" xmlns="http://www.w3.org/2000/svg" p-id="141403" xmlns:xlink="http://www.w3.org/1999/xlink" width="128" height="128"><path d="M752.64 373.76H373.76c-16.896 0-30.72-13.824-30.72-30.72s13.824-30.72 30.72-30.72h378.88c16.896 0 30.72 13.824 30.72 30.72s-13.824 30.72-30.72 30.72zM527.36 527.36H373.76c-16.896 0-30.72-13.824-30.72-30.72s13.824-30.72 30.72-30.72h153.6c16.896 0 30.72 13.824 30.72 30.72s-13.824 30.72-30.72 30.72z" fill="#E09527" p-id="141404"></path><path d="M768 952.32H307.2v-61.44h460.8c67.584 0 122.88-55.296 122.88-122.88V204.8c0-39.424-32.256-71.68-71.68-71.68H307.2c-39.424 0-71.68 32.256-71.68 71.68v512H174.08V204.8c0-73.216 59.904-133.12 133.12-133.12h512c73.216 0 133.12 59.904 133.12 133.12v563.2c0 101.888-82.432 184.32-184.32 184.32z" fill="#A32A1F" p-id="141405"></path><path d="M716.8 952.32H204.8c-73.216 0-133.12-59.904-133.12-133.12s59.904-133.12 133.12-133.12h512c73.216 0 133.12 59.904 133.12 133.12s-59.904 133.12-133.12 133.12zM204.8 747.52c-39.424 0-71.68 32.256-71.68 71.68s32.256 71.68 71.68 71.68h512c39.424 0 71.68-32.256 71.68-71.68s-32.256-71.68-71.68-71.68H204.8z" fill="#A32A1F" p-id="141406"></path><path d="M716.8 952.32c-73.216 0-133.12-59.904-133.12-133.12s59.904-133.12 133.12-133.12 133.12 59.904 133.12 133.12-59.904 133.12-133.12 133.12z m0-204.8c-39.424 0-71.68 32.256-71.68 71.68s32.256 71.68 71.68 71.68 71.68-32.256 71.68-71.68-32.256-71.68-71.68-71.68z" fill="#A32A1F" p-id="141407"></path></svg>