<?xml version="1.0" standalone="no"?><!DOCTYPE svg PUBLIC "-//W3C//DTD SVG 1.1//EN" "http://www.w3.org/Graphics/SVG/1.1/DTD/svg11.dtd"><svg t="1758814681944" class="icon" viewBox="0 0 1024 1024" version="1.1" xmlns="http://www.w3.org/2000/svg" p-id="107780" xmlns:xlink="http://www.w3.org/1999/xlink" width="128" height="128"><path d="M511.979521 512.020479m-511.979521 0a511.979521 511.979521 0 1 0 1023.959042 0 511.979521 511.979521 0 1 0-1023.959042 0Z" fill="#BA67FD" p-id="107781"></path><path d="M508.620935 663.23875l-18.513179 27.073478s-13.311468 24.575017 13.434342 36.862525c68.932923 31.578897 86.99556 71.963841 97.194193 84.783809s28.179353 13.106676 36.084316-2.621335c27.687852-55.211872 58.529499-174.605496 196.600136-278.189193C669.25963 591.152034 618.471261 720.047998 618.471261 720.047998s-31.374105-47.921283-67.335546-62.461501c-31.210272-12.779009-42.514779 5.652254-42.51478 5.652253z" fill="#FFFFFF" p-id="107782"></path><path d="M483.75921 771.082117a73.725051 73.725051 0 0 1-40.958362-44.071197 77.49322 77.49322 0 0 1 5.406504-59.635375 39.688652 39.688652 0 0 1 2.621335-4.095836l18.144554-26.581977a73.725051 73.725051 0 0 1 62.133835-31.578897 101.658654 101.658654 0 0 1 38.173193 7.945922 154.781649 154.781649 0 0 1 41.367945 25.885685c7.126755-9.830007 15.809928-20.479181 25.353226-31.25123a511.201312 511.201312 0 0 0-90.108396-40.098236c-3.686253-1.228751-26.459102-11.75505-12.287508-56.031039h-0.204792c37.190192-39.074277 61.847126-102.109196 61.847126-163.833446 0-95.310108-58.24279-145.23835-130.411423-145.238351S334.916523 252.426383 334.916523 347.654574c0 62.215751 24.575017 125.455462 61.929043 164.447822 14.540218 39.074277-11.5093 53.532579-16.956762 55.621455-75.445302 27.851686-164.079197 78.681013-164.079196 128.895964v18.75893c0 68.359506 129.797048 83.964641 249.846006 83.964641 20.479181 0 40.958362-0.4915 60.946042-1.515459a182.633335 182.633335 0 0 0-42.842446-26.74581z" fill="#FFFFFF" p-id="107783"></path></svg>