<svg width="24" height="24" viewBox="0 0 24 24" fill="none" xmlns="http://www.w3.org/2000/svg">
  <path d="M12 2C12 2 15 5 15 9L12 12L9 9C9 5 12 2 12 2Z" fill="currentColor"/>
  <path d="M12 12L15 9C15 9 18 10 18 13C18 16 15 17 15 17L12 12Z" fill="currentColor"/>
  <path d="M12 12L9 9C9 9 6 10 6 13C6 16 9 17 9 17L12 12Z" fill="currentColor"/>
  <path d="M12 12L15 17C15 17 12 20 12 20C12 20 9 17 9 17L12 12Z" fill="currentColor"/>
  <circle cx="12" cy="8" r="1" fill="white"/>
  <path d="M4 18L6 16L8 18L6 20L4 18Z" fill="currentColor"/>
  <path d="M20 18L18 16L16 18L18 20L20 18Z" fill="currentColor"/>
</svg>